# AST/ASF file generated using VICON BodyLanguage
# -----------------------------------------------
:version 1.10
:name VICON
:units
  mass 1.0
  length 0.45
  angle deg
:documentation
   .ast/.asf automatically generated from VICON data using
   VICON BodyBuilder and BodyLanguage model FoxedUp or BRILLIANT.MOD
:root
   order TX TY TZ RX RY RZ
   axis XYZ
   position 0 0 0  
   orientation 0 0 0 
:bonedata
  begin
     id 1 
     name lhipjoint
     direction 0.521689 -0.742065 0.420928 
     length 2.47002 
     axis 0 0 0  XYZ
  end
  begin
     id 2 
     name lfemur
     direction 0.34202 -0.939693 0  
     length 7.24654  
     axis 0 0 20  XYZ
    dof rx ry rz
    limits (-160.0 20.0)
           (-70.0 70.0)
           (-60.0 70.0)
  end
  begin
     id 3 
     name ltibia
     direction 0.34202 -0.939693 0   
     length 8.04849   
     axis 0 0 20   XYZ
    dof rx
    limits (-10.0 170.0)
  end
  begin
     id 4 
     name lfoot
     direction 0.0745411 -0.2048 0.975961   
     length 1.72367   
     axis -90 7.62852e-016 20   XYZ
    dof rx rz
    limits (-45.0 90.0)
           (-70.0 20.0)
  end
  begin
     id 5 
     name ltoes
     direction 1.53556e-011 -4.21901e-011 1   
     length 0.87311   
     axis -90 7.62852e-016 20   XYZ
    dof rx
    limits (-90.0 20.0)
  end
  begin
     id 6 
     name rhipjoint
     direction -0.52849 -0.738415 0.418857   
     length 2.48223  
     axis 0 0 0  XYZ 
  end
  begin
     id 7 
     name rfemur
     direction -0.34202 -0.939693 0   
     length 7.15571   
     axis 0 0 -20   XYZ
    dof rx ry rz
    limits (-160.0 20.0)
           (-70.0 70.0)
           (-70.0 60.0)
  end
  begin
     id 8 
     name rtibia
     direction -0.34202 -0.939693 0   
     length 7.81659   
     axis 0 0 -20   XYZ
    dof rx
    limits (-10.0 170.0)
 end
 begin
     id 9 
     name rfoot
     direction -0.0917348 -0.252039 0.963359   
     length 1.84382  
     axis -90 -7.62852e-016 -20   XYZ
    dof rx rz
    limits (-45.0 90.0)
           (-20.0 70.0)
  end
  begin
     id 10 
     name rtoes
     direction -1.53551e-011 -4.21879e-011 1   
     length 0.927771   
     axis -90 -7.62852e-016 -20   XYZ
    dof rx
    limits (-90.0 20.0)
  end
  begin
     id 11 
     name lowerback
     direction 0.00583058 0.999822 0.0179296   
     length 2.1429   
     axis 0 0 0   XYZ
    dof rx ry rz
    limits (-20.0 45.0)
           (-30.0 30.0)
           (-30.0 30.0)
  end
  begin
     id 12 
     name upperback
     direction -0.0137999 0.999752 -0.0175071   
     length 2.14252   
     axis 0 0 0   XYZ
    dof rx ry rz
    limits (-20.0 45.0)
           (-30.0 30.0)
           (-30.0 30.0)
  end
  begin
     id 13 
     name thorax
     direction -0.0158036 0.99955 -0.0254909   
     length 2.1383   
     axis 0 0 0   XYZ
    dof rx ry rz
    limits (-20.0 45.0)
           (-30.0 30.0)
           (-30.0 30.0)
  end
  begin
     id 14 
     name lowerneck
     direction -0.0101179 0.999403 -0.0330262   
     length 1.65808   
     axis 0 0 0   XYZ
    dof rx ry rz
    limits (-20.0 45.0)
           (-30.0 30.0)
           (-30.0 30.0)
  end
  begin
     id 15 
     name upperneck
     direction 0.0497734 0.995978 -0.074501   
     length 1.5897   
     axis 0 0 0   XYZ
    dof rx ry rz
    limits (-20.0 45.0)
           (-30.0 30.0)
           (-30.0 30.0)
  end
  begin
     id 16
     name head
     direction 0.0189524 0.999519 -0.0245438  
     length 1.74024  
     axis 0 0 0   XYZ
    dof rx ry rz
    limits (-20.0 45.0)
           (-30.0 30.0)
           (-30.0 30.0)
  end
  begin
     id 17 
     name lclavicle
     direction 0.945604 0.324422 0.0241537  
     length 3.59089  
     axis 0 0 0   XYZ
    dof ry rz
    limits (-20.0 10.0)
           (0.0 20.0)
  end
  begin
     id 18 
     name lhumerus
     direction 1 -4.48964e-011 -2.63524e-027   
     length 5.2391   
     axis 180 -30 -90   XYZ
    dof rx ry rz
    limits (-60.0 90.0)
           (-90.0 90.0)
           (-90.0 90.0)
  end
  begin
     id 19
     name lradius
     direction 1 -4.48969e-011 3.86978e-028   
     length 3.31467   
     axis 180 -30 -90   XYZ
    dof rx
    limits (-10.0 170.0)
  end
  begin
     id 20
     name lwrist
     direction 1 -4.48963e-011 7.20928e-028   
     length 1.65734   
     axis -5.52449e-016 90 90   XYZ
    dof ry
    limits (-180.0 0.0)
 end
  begin
     id 21 
     name lhand
     direction 1 -4.48964e-011 1.44186e-027   
     length 0.9659   
     axis -9.20027e-016 90 90   XYZ
    dof rx rz
    limits (-90.0 90.0)
           (-45.0 45.0)
  end
  begin
     id 22 
     name lfingers
     direction 1 -4.48965e-011 2.88371e-027   
     length 0.778733   
     axis -1.84005e-015 90 90   XYZ
    dof rx
    limits (0.0 90.0)
  end
  begin
     id 23
     name lthumb
     direction 0.707107 -6.34931e-011 0.707107   
     length 1.11811   
     axis -90 45 2.85299e-015   XYZ
    dof rx rz
    limits (-45.0 45.0)
           (-45.0 45.0)
  end
  begin
     id 24 
     name rclavicle
     direction -0.923762 0.370785 0.0958234   
     length 3.54196  
     axis 0 0 0   XYZ 
    dof ry rz
    limits (-10.0 20.0)
           (-20.0 0.0)
  end
  begin
     id 25 
     name rhumerus
     direction -1 -4.48966e-011 1.18702e-017  
     length 5.30252   
     axis 180 30 90   XYZ
    dof rx ry rz
    limits (-90.0 60.0)
           (-90.0 90.0)
           (-90.0 90.0)
  end
  begin
     id 26 
     name rradius
     direction -1 -4.48966e-011 4.46736e-027   
     length 3.67875   
     axis 180 30 90   XYZ
    dof rx
    limits (-10.0 170.0)
  end
  begin
     id 27 
     name rwrist
     direction -1 -4.48966e-011 7.20928e-028   
     length 1.83937   
     axis -5.52449e-016 -90 -90   XYZ
    dof ry
    limits (-180.0 0.0)
  end
  begin
     id 28
     name rhand
     direction -1 -4.48973e-011 1.44186e-027   
     length 0.594811   
     axis -9.20027e-016 -90 -90   XYZ
    dof rx rz
    limits (-90.0 90.0)
           (-45.0 45.0)
  end
  begin
     id 29
     name rfingers
     direction -1 -4.48963e-011 2.88371e-027   
     length 0.479552   
     axis -1.84005e-015 -90 -90   XYZ
    dof rx
    limits (0.0 90.0)
  end
  begin
     id 30
     name rthumb
     direction -0.707107 -6.34932e-011 0.707107   
     length 0.688544   
     axis -90 -45 -2.85299e-015   XYZ
    dof rx rz
    limits (-45.0 45.0)
           (-45.0 45.0)
  end
:hierarchy
  begin
    root lhipjoint rhipjoint lowerback
    lhipjoint lfemur
    lfemur ltibia
    ltibia lfoot
    lfoot ltoes
    rhipjoint rfemur
    rfemur rtibia
    rtibia rfoot
    rfoot rtoes
    lowerback upperback
    upperback thorax
    thorax lowerneck lclavicle rclavicle
    lowerneck upperneck
    upperneck head
    lclavicle lhumerus
    lhumerus lradius
    lradius lwrist
    lwrist lhand lthumb
    lhand lfingers
    rclavicle rhumerus
    rhumerus rradius
    rradius rwrist
    rwrist rhand rthumb
    rhand rfingers
  end

#!OML:ASF E:\acrobat2\Project_11_07_03\Capture day 1\Session 1\Acrobat.ASF
:FULLY-SPECIFIED
:DEGREES
1
root 8.84889 18.2525 21.9721 6.40828 2.52458 0.712523
lowerback -9.97474 0.871557 -0.236357
upperback -4.09344 1.22014 -1.76159
thorax 1.37323 0.600842 -1.55402
lowerneck 2.14579 -2.98706 -0.727652
upperneck 4.00603 -4.06639 2.40322
head 0.940011 -2.02236 0.846907
rclavicle 3.67752e-015 4.37326e-015
rhumerus -43.5357 -2.61546 -86.0985
rradius 25.6373
rwrist 5.06532
rhand -6.52827 -41.0095
rfingers 7.12502
rthumb 19.3245 -70.0693
lclavicle 3.67752e-015 4.37326e-015
lhumerus -34.576 -16.8093 92.2167
lradius 19.8395
lwrist 11.8311
lhand -8.37326 -9.22911
lfingers 7.12502
lthumb 17.5497 19.9988
rfemur 0.415348 6.7194 21.4575
rtibia 2.35078
rfoot -18.754 -17.7067
rtoes 12.3105
lfemur -3.00235 -1.84731 -20.9297
ltibia 6.51185
lfoot 0 0
ltoes 0
2
root 8.84776 18.2577 21.9832 6.43383 2.61642 0.977726
lowerback -10.0628 0.796612 -0.536529
upperback -4.09353 1.15082 -1.80483
thorax 1.41457 0.568517 -1.43639
lowerneck 2.0859 -2.88623 -0.958678
upperneck 4.04305 -3.94084 2.58537
head 0.969052 -1.96061 0.941602
rclavicle 6.95746e-016 -1.43125e-014
rhumerus -43.4999 -3.0369 -85.6715
rradius 25.8096
rwrist 6.1971
rhand -5.59881 -40.4635
rfingers 7.12502
rthumb 20.218 -69.4313
lclavicle 6.95746e-016 -1.43125e-014
lhumerus -34.6625 -17.0726 92.4407
lradius 20.056
lwrist 12.393
lhand -8.81805 -8.98583
lfingers 7.12502
lthumb 17.1216 20.2798
rfemur 0.571378 6.91104 21.2153
rtibia 2.23187
rfoot -18.809 -17.8897
rtoes 11.8956
lfemur -3.10906 -1.89494 -21.234
ltibia 6.76022
lfoot 0 0
ltoes 0
3
root 8.8454 18.2579 21.9904 6.4517 2.60866 1.06473
lowerback -10.1891 0.779997 -0.668772
upperback -4.02283 1.14478 -1.81323
thorax 1.55449 0.566569 -1.36917
lowerneck 2.047 -2.85451 -1.01583
upperneck 3.92737 -3.89771 2.62446
head 0.940984 -1.93995 0.963666
rclavicle -1.40143e-014 -1.47101e-014
rhumerus -43.2789 -3.03311 -85.6453
rradius 25.9194
rwrist 6.35731
rhand -5.20015 -40.1157
rfingers 7.12502
rthumb 20.6011 -69.0425
lclavicle -1.40143e-014 -1.47101e-014
lhumerus -34.379 -17.0266 92.4015
lradius 19.9398
lwrist 12.4361
lhand -8.93904 -9.01988
lfingers 7.12502
lthumb 17.0051 20.2558
rfemur 0.625731 7.04331 21.1488
rtibia 2.18702
rfoot -18.9131 -17.9667
rtoes 11.8503
lfemur -2.976 -1.75963 -21.3015
ltibia 6.52286
lfoot 0 0
ltoes 0
4
root 8.84649 18.2569 21.9943 6.47121 2.55511 1.11326
lowerback -10.2847 0.798719 -0.701263
upperback -3.96341 1.17597 -1.83374
thorax 1.66881 0.582231 -1.36685
lowerneck 2.11781 -2.84146 -0.977918
upperneck 3.71636 -3.87566 2.6361
head 0.862647 -1.93017 0.9632
rclavicle 9.74045e-015 -2.38542e-015
rhumerus -43.0482 -2.86663 -85.7522
rradius 26.0476
rwrist 6.22854
rhand -5.11848 -40.2203
rfingers 7.12502
rthumb 20.6796 -69.1386
lclavicle 9.74045e-015 -2.38542e-015
lhumerus -34.1362 -17.0186 92.3616
lradius 19.8872
lwrist 12.4144
lhand -8.84346 -9.01257
lfingers 7.12502
lthumb 17.0971 20.2551
rfemur 0.608794 7.00999 21.0741
rtibia 2.20109
rfoot -19.0009 -17.876
rtoes 11.4056
lfemur -2.40924 -1.28181 -21.2963
ltibia 5.40741
lfoot 0 0
ltoes 0
5
root 8.85414 18.2599 21.9962 6.47245 2.64817 1.1756
lowerback -10.2601 0.7869 -0.666652
upperback -3.963 1.15779 -1.87854
thorax 1.657 0.572754 -1.43514
lowerneck 2.19983 -2.82806 -0.925678
upperneck 3.57399 -3.85481 2.66504
head 0.804033 -1.92039 0.965502
rclavicle -3.37934e-015 3.26007e-014
rhumerus -42.8938 -2.68281 -85.8598
rradius 26.1778
rwrist 5.98229
rhand -5.1468 -40.6631
rfingers 7.12502
rthumb 20.6524 -69.5843
lclavicle -3.37934e-015 3.26007e-014
lhumerus -34.1699 -17.3596 92.5206
lradius 20.0084
lwrist 12.7423
lhand -8.83071 -9.00527
lfingers 7.12502
lthumb 17.1094 20.2614
rfemur 0.620167 6.5558 20.9287
rtibia 2.222
rfoot -18.8213 -17.5869
rtoes 11.0411
lfemur -2.38136 -1.15817 -21.4401
ltibia 5.38334
lfoot 0 0
ltoes 0
6
root 8.86697 18.2662 21.9962 6.43912 2.87511 1.26652
lowerback -10.0899 0.738105 -0.587423
upperback -4.01151 1.08369 -1.94962
thorax 1.51475 0.534845 -1.56419
lowerneck 2.26904 -2.82097 -0.821624
upperneck 3.49403 -3.84065 2.61078
head 0.764014 -1.91344 0.932663
rclavicle 1.50082e-014 2.78299e-015
rhumerus -42.8256 -2.39233 -86.084
rradius 26.2505
rwrist 5.38974
rhand -5.54203 -40.7984
rfingers 7.12502
rthumb 20.2725 -69.7604
lclavicle 1.50082e-014 2.78299e-015
lhumerus -34.3163 -17.7322 92.7133
lradius 20.1355
lwrist 13.0995
lhand -8.89991 -9.12242
lfingers 7.12502
lthumb 17.0428 20.15
rfemur 0.663359 5.63916 20.6931
rtibia 2.27107
rfoot -18.3628 -17.0826
rtoes 10.242
lfemur -2.34308 -1.06092 -21.6725
ltibia 5.44209
lfoot -3.66857 -8.26753
ltoes 38.71
7
root 8.87196 18.2675 21.9986 6.38071 2.92782 1.35585
lowerback -9.93661 0.726975 -0.597576
upperback -4.03642 1.06798 -2.00102
thorax 1.40533 0.526688 -1.61536
lowerneck 2.29792 -2.83709 -0.678013
upperneck 3.4403 -3.85448 2.4402
head 0.735832 -1.92028 0.856452
rclavicle -1.44119e-015 -9.14409e-015
rhumerus -42.7652 -2.18421 -86.2707
rradius 26.3025
rwrist 5.03786
rhand -6.08209 -40.6194
rfingers 7.12502
rthumb 19.7534 -69.6356
lclavicle -1.44119e-015 -9.14409e-015
lhumerus -34.3313 -17.754 92.7235
lradius 20.2197
lwrist 13.0054
lhand -8.88784 -9.20145
lfingers 7.12502
lthumb 17.0544 20.07
rfemur 0.724642 5.31759 20.5437
rtibia 2.31653
rfoot -18.1988 -16.9147
rtoes 9.65583
lfemur -2.24812 -1.10713 -21.8315
ltibia 5.45489
lfoot -3.68413 -8.33469
ltoes 39.2358
8
root 8.86628 18.2634 22.0037 6.34584 2.81404 1.2765
lowerback -9.93448 0.762484 -0.583033
upperback -4.00025 1.11345 -1.96522
thorax 1.44236 0.54953 -1.58121
lowerneck 2.13512 -2.86238 -0.661134
upperneck 3.53342 -3.88862 2.38316
head 0.790416 -1.93581 0.832948
rclavicle -1.65488e-014 9.54166e-015
rhumerus -42.6372 -2.10441 -86.3166
rradius 26.4868
rwrist 4.97645
rhand -6.21983 -40.7143
rfingers 7.12502
rthumb 19.621 -69.7442
lclavicle -1.65488e-014 9.54166e-015
lhumerus -34.2024 -17.7184 92.6692
lradius 20.2845
lwrist 12.6979
lhand -8.75511 -9.13739
lfingers 7.12502
lthumb 17.1822 20.1229
rfemur 0.770438 5.84423 20.7307
rtibia 2.31272
rfoot -18.3466 -17.2533
rtoes 9.68523
lfemur -2.17696 -1.18072 -21.6718
ltibia 5.4236
lfoot -3.81643 -8.25993
ltoes 40.1221
9
root 8.86207 18.2611 22.0081 6.37192 2.74343 1.12533
lowerback -10.0251 0.790305 -0.476092
upperback -3.96271 1.14124 -1.9099
thorax 1.53257 0.563044 -1.57963
lowerneck 1.9431 -2.84471 -0.76119
upperneck 3.65903 -3.87246 2.51303
head 0.866219 -1.92586 0.88642
rclavicle 5.46658e-016 -1.55052e-014
rhumerus -42.4878 -1.99601 -86.3429
rradius 26.7556
rwrist 4.87771
rhand -6.00461 -40.9211
rfingers 7.12502
rthumb 19.8279 -69.9297
lclavicle 5.46658e-016 -1.55052e-014
lhumerus -34.0702 -17.8513 92.7031
lradius 20.3263
lwrist 12.6331
lhand -8.59968 -9.02923
lfingers 7.12502
lthumb 17.3318 20.218
rfemur 0.751395 6.23372 20.9806
rtibia 2.30003
rfoot -18.5373 -17.4741
rtoes 9.64634
lfemur -2.15996 -1.51369 -21.4213
ltibia 5.25234
lfoot -4.13516 -7.84947
ltoes 40.0811
10
root 8.86207 18.2608 22.0127 6.43212 2.71972 0.958742
lowerback -10.1243 0.825126 -0.288887
upperback -3.97051 1.17049 -1.88401
thorax 1.58266 0.57651 -1.65374
lowerneck 1.94719 -2.83097 -0.764533
upperneck 3.62928 -3.85516 2.57369
head 0.857537 -1.91701 0.906106
rclavicle 3.8266e-015 3.18055e-015
rhumerus -42.4301 -1.9246 -86.3684
rradius 27.0058
rwrist 4.82291
rhand -5.95603 -40.906
rfingers 7.12502
rthumb 19.8746 -69.9098
lclavicle 3.8266e-015 3.18055e-015
lhumerus -34.0024 -17.906 92.7119
lradius 20.3857
lwrist 12.6426
lhand -8.5404 -9.0331
lfingers 7.12502
lthumb 17.3888 20.2091
rfemur 0.679159 6.29472 21.1803
rtibia 2.29156
rfoot -18.783 -17.4521
rtoes 9.79211
lfemur -2.1248 -2.21004 -21.1894
ltibia 4.88567
lfoot -4.48232 -7.0788
ltoes 39.1049
11
root 8.86455 18.2608 22.0166 6.46652 2.73215 0.81769
lowerback -10.1656 0.846132 -0.1068
upperback -3.98861 1.18086 -1.86458
thorax 1.58995 0.5805 -1.73461
lowerneck 1.97784 -2.82869 -0.719677
upperneck 3.59918 -3.85081 2.57032
head 0.841972 -1.91472 0.898173
rclavicle -6.21202e-015 -7.55382e-015
rhumerus -42.4143 -1.87131 -86.3744
rradius 27.2395
rwrist 4.85785
rhand -6.20552 -40.7596
rfingers 7.12502
rthumb 19.6348 -69.788
lclavicle -6.21202e-015 -7.55382e-015
lhumerus -33.9273 -17.9103 92.7107
lradius 20.449
lwrist 12.7296
lhand -8.48001 -8.96138
lfingers 7.12502
lthumb 17.4469 20.2757
rfemur 0.62892 6.18934 21.3225
rtibia 2.29723
rfoot -18.9181 -17.3435
rtoes 10.6406
lfemur -2.10767 -2.52941 -21.0093
ltibia 4.70004
lfoot -4.80618 -6.80824
ltoes 37.6682
12
root 8.86691 18.2598 22.0178 6.4664 2.78735 0.692545
lowerback -10.1343 0.824024 0.0469644
upperback -3.99083 1.13568 -1.82358
thorax 1.57125 0.557072 -1.78429
lowerneck 1.97577 -2.79976 -0.75697
upperneck 3.57773 -3.81397 2.63775
head 0.83741 -1.8964 0.925585
rclavicle -5.86415e-015 -2.78299e-015
rhumerus -42.291 -1.74545 -86.3927
rradius 27.3672
rwrist 4.75177
rhand -6.36569 -40.5313
rfingers 7.12502
rthumb 19.4808 -69.5754
lclavicle -5.86415e-015 -2.78299e-015
lhumerus -33.8099 -17.8732 92.7302
lradius 20.4795
lwrist 12.8878
lhand -8.36763 -8.76121
lfingers 7.12502
lthumb 17.5551 20.4662
rfemur 0.62318 6.04944 21.4595
rtibia 2.33673
rfoot -18.8449 -17.2497
rtoes 11.5463
lfemur -2.10316 -2.58709 -20.8592
ltibia 4.7359
lfoot -4.81208 -6.98763
ltoes 37.9533
13
root 8.86453 18.2581 22.0204 6.49099 2.78703 0.539395
lowerback -10.1503 0.81798 0.167739
upperback -3.98247 1.11502 -1.76382
thorax 1.58906 0.546349 -1.79251
lowerneck 1.98128 -2.78325 -0.781176
upperneck 3.48326 -3.79067 2.65906
head 0.807848 -1.88562 0.936965
rclavicle 1.64991e-014 -5.1684e-015
rhumerus -42.1106 -1.71871 -86.3533
rradius 27.484
rwrist 4.55737
rhand -6.24901 -40.4898
rfingers 7.12502
rthumb 19.593 -69.5225
lclavicle 1.64991e-014 -5.1684e-015
lhumerus -33.7199 -17.8431 92.7687
lradius 20.5085
lwrist 12.8848
lhand -8.47131 -8.77923
lfingers 7.12502
lthumb 17.4553 20.4571
rfemur 0.620562 6.25199 21.6888
rtibia 2.32386
rfoot -18.6797 -17.4378
rtoes 11.3601
lfemur -2.11049 -2.73028 -20.6506
ltibia 4.80595
lfoot -4.83992 -7.20048
ltoes 39.388
